<?xml version="1.0" encoding="UTF-8" standalone="no"?>
<!-- Generator: Adobe Illustrator 19.0.0, SVG Export Plug-In . SVG Version: 6.00 Build 0)  -->

<svg
   xmlns:dc="http://purl.org/dc/elements/1.1/"
   xmlns:cc="http://creativecommons.org/ns#"
   xmlns:rdf="http://www.w3.org/1999/02/22-rdf-syntax-ns#"
   xmlns:svg="http://www.w3.org/2000/svg"
   xmlns="http://www.w3.org/2000/svg"
   xmlns:sodipodi="http://sodipodi.sourceforge.net/DTD/sodipodi-0.dtd"
   xmlns:inkscape="http://www.inkscape.org/namespaces/inkscape"
   version="1.1"
   id="Capa_1"
   x="0px"
   y="0px"
   viewBox="0 0 293.24701 114.125"
   xml:space="preserve"
   sodipodi:docname="logo.svg"
   inkscape:version="0.92.5 (2060ec1f9f, 2020-04-08)"
   width="293.24701"
   height="114.125"><metadata
   id="metadata945"><rdf:RDF><cc:Work
       rdf:about=""><dc:format>image/svg+xml</dc:format><dc:type
         rdf:resource="http://purl.org/dc/dcmitype/StillImage" /><dc:title /></cc:Work></rdf:RDF></metadata><defs
   id="defs943" /><sodipodi:namedview
   pagecolor="#ffffff"
   bordercolor="#666666"
   borderopacity="1"
   objecttolerance="10"
   gridtolerance="10"
   guidetolerance="10"
   inkscape:pageopacity="0"
   inkscape:pageshadow="2"
   inkscape:window-width="2560"
   inkscape:window-height="1051"
   id="namedview941"
   showgrid="false"
   inkscape:zoom="0.80478505"
   inkscape:cx="146.623"
   inkscape:cy="106.76671"
   inkscape:window-x="1920"
   inkscape:window-y="0"
   inkscape:window-maximized="1"
   inkscape:current-layer="Capa_1" />
<g
   id="g908"
   inkscape:export-xdpi="96"
   inkscape:export-ydpi="96"
   style="fill:#d01110;fill-opacity:1"
   transform="translate(0,-89.562)">
	<path
   d="m 77.916,89.562 c -19.922,0 -37.482,10.27 -47.692,25.785 H 6 c -3.313,0 -6,2.687 -6,6 0,3.313 2.687,6 6,6 h 18.213 c -2.169,6.025 -3.359,12.514 -3.359,19.276 0,31.464 25.598,57.062 57.062,57.062 31.464,0 57.062,-25.598 57.062,-57.062 0,-31.464 -25.598,-57.061 -57.062,-57.061 z m 0,102.123 c -24.847,0 -45.062,-20.215 -45.062,-45.062 0,-24.847 20.215,-45.062 45.062,-45.062 24.847,0 45.062,20.215 45.062,45.062 0,24.847 -20.215,45.062 -45.062,45.062 z"
   id="path904"
   style="fill:#d01110;fill-opacity:1"
   inkscape:connector-curvature="0" />
	<path
   d="m 287.246,115.347 h -27.05 C 257.3,110.933 253.794,106.9 249.736,103.4 239.391,94.476 226.161,89.562 212.483,89.562 c -20.432,0 -38.381,10.801 -48.462,26.986 -4.376,-5.595 -11.183,-9.202 -18.821,-9.202 -4.002,0 -7.964,1.011 -11.457,2.922 -2.907,1.591 -3.974,5.237 -2.383,8.145 1.59,2.906 5.236,3.972 8.144,2.383 1.757,-0.962 3.673,-1.449 5.696,-1.449 6.556,0 11.89,5.334 11.89,11.89 0,0.408 0.042,0.807 0.119,1.193 -1.167,4.54 -1.788,9.296 -1.788,14.195 0,31.464 25.598,57.062 57.062,57.062 23.623,0 45.087,-14.848 53.414,-36.946 1.168,-3.101 -0.398,-6.562 -3.5,-7.729 -3.1,-1.17 -6.562,0.397 -7.73,3.499 -6.575,17.451 -23.527,29.177 -42.184,29.177 -24.847,0 -45.062,-20.215 -45.062,-45.062 0,-24.847 20.215,-45.062 45.062,-45.062 22.328,0 41.048,15.979 44.512,37.995 0.515,3.273 3.584,5.508 6.86,4.994 3.273,-0.515 5.509,-3.586 4.995,-6.859 -0.557,-3.542 -1.459,-7.002 -2.66,-10.345 h 21.057 c 3.313,0 6,-2.687 6,-6 0,-3.313 -2.687,-6.002 -6.001,-6.002 z"
   id="path906"
   style="fill:#d01110;fill-opacity:1"
   inkscape:connector-curvature="0" />
</g>
<g
   id="g910"
   transform="translate(0,-89.562)">
</g>
<g
   id="g912"
   transform="translate(0,-89.562)">
</g>
<g
   id="g914"
   transform="translate(0,-89.562)">
</g>
<g
   id="g916"
   transform="translate(0,-89.562)">
</g>
<g
   id="g918"
   transform="translate(0,-89.562)">
</g>
<g
   id="g920"
   transform="translate(0,-89.562)">
</g>
<g
   id="g922"
   transform="translate(0,-89.562)">
</g>
<g
   id="g924"
   transform="translate(0,-89.562)">
</g>
<g
   id="g926"
   transform="translate(0,-89.562)">
</g>
<g
   id="g928"
   transform="translate(0,-89.562)">
</g>
<g
   id="g930"
   transform="translate(0,-89.562)">
</g>
<g
   id="g932"
   transform="translate(0,-89.562)">
</g>
<g
   id="g934"
   transform="translate(0,-89.562)">
</g>
<g
   id="g936"
   transform="translate(0,-89.562)">
</g>
<g
   id="g938"
   transform="translate(0,-89.562)">
</g>
</svg>